<svg width="256" height="256" viewBox="0 0 256 256" fill="none" xmlns="http://www.w3.org/2000/svg">
    <rect width="256" height="256" rx="55" fill="url(#grad-bg)"/>
    <path d="M128 48L58 208H86L102 168H154L170 208H198L128 48ZM112 144L128 96L144 144H112Z" fill="white" fill-opacity="0.9"/>
    <circle cx="188" cy="68" r="32" fill="url(#grad-gear)"/>
    <path d="M188 48.5C189.933 48.5 191.5 50.067 191.5 52V57C191.5 58.933 189.933 60.5 188 60.5C186.067 60.5 184.5 58.933 184.5 57V52C184.5 50.067 186.067 48.5 188 48.5Z" fill="white"/>
    <path d="M188 75.5C189.933 75.5 191.5 77.067 191.5 79V84C191.5 85.933 189.933 87.5 188 87.5C186.067 87.5 184.5 85.933 184.5 84V79C184.5 77.067 186.067 75.5 188 75.5Z" fill="white"/>
    <path d="M207.5 68C207.5 69.933 205.933 71.5 204 71.5H199C197.067 71.5 195.5 69.933 195.5 68C195.5 66.067 197.067 64.5 199 64.5H204C205.933 64.5 207.5 66.067 207.5 68Z" fill="white"/>
    <path d="M180.5 68C180.5 69.933 178.933 71.5 177 71.5H172C170.067 71.5 168.5 69.933 168.5 68C168.5 66.067 170.067 64.5 172 64.5H177C178.933 64.5 180.5 66.067 180.5 68Z" fill="white"/>
    <path d="M200.042 55.9581C201.505 57.421 201.505 59.8291 200.042 61.292L196.292 65.042C194.829 66.5049 192.421 66.5049 190.958 65.042C189.495 63.5791 189.495 61.171 190.958 59.7081L194.708 55.9581C196.171 54.4952 198.579 54.4952 200.042 55.9581Z" fill="white"/>
    <path d="M175.292 70.7081C176.755 72.171 176.755 74.5791 175.292 76.042L171.542 79.792C170.079 81.2549 167.671 81.2549 166.208 79.792C164.745 78.3291 164.745 75.921 166.208 74.4581L169.958 70.7081C171.421 69.2452 173.829 69.2452 175.292 70.7081Z" fill="white"/>
    <path d="M196.292 70.708C194.829 69.2451 192.421 69.2451 190.958 70.708L189.958 71.708C188.495 73.171 188.495 75.579 189.958 77.042L193.708 80.792C195.171 82.2549 197.579 82.2549 199.042 80.792L200.042 79.792C201.505 78.329 201.505 75.921 200.042 74.458L196.292 70.708Z" fill="white" transform="rotate(90 195 73)"/>
    <path d="M171.542 55.958C170.079 54.4951 167.671 54.4951 166.208 55.958L165.208 56.958C163.745 58.421 163.745 60.829 165.208 62.292L168.958 66.042C170.421 67.5049 172.829 67.5049 174.292 66.042L175.292 65.042C176.755 63.579 176.755 61.171 175.292 59.708L171.542 55.958Z" fill="white" transform="rotate(90 170 60)"/>
    <circle cx="188" cy="68" r="6" fill="white"/>
    <defs>
        <linearGradient id="grad-bg" x1="0" y1="0" x2="256" y2="256" gradientUnits="userSpaceOnUse">
            <stop stop-color="#3A3A3A"/>
            <stop offset="1" stop-color="#1E1E1E"/>
        </linearGradient>
        <linearGradient id="grad-gear" x1="156" y1="36" x2="220" y2="100" gradientUnits="userSpaceOnUse">
            <stop stop-color="#007BFF"/>
            <stop offset="1" stop-color="#0056b3"/>
        </linearGradient>
    </defs>
</svg>
